<?xml version="1.0" encoding="utf-8"?>
<!-- Generator: Adobe Illustrator 23.0.2, SVG Export Plug-In . SVG Version: 6.00 Build 0)  -->
<svg version="1.1" id="Layer_1" xmlns="http://www.w3.org/2000/svg" xmlns:xlink="http://www.w3.org/1999/xlink" x="0px" y="0px"
	 viewBox="0 0 73.4 73.3" style="enable-background:new 0 0 73.4 73.3;" xml:space="preserve">
<style type="text/css">
	.st0{stroke:#00EA00;stroke-width:1.5;stroke-miterlimit:10;}
</style>
<path class="st0" d="M18.5,22.7v27.8c0,2.4,1.9,4.3,4.3,4.3h27.7c2.4,0,4.3-1.9,4.3-4.3v-6.9c0-2.4-1.9-4.3-4.3-4.3H40.4
	c-2.4,0-4.3-1.9-4.3-4.3V24c0-2.4,1.9-4.3,4.3-4.3h24.5c4.3,0,7.7,3.5,7.7,7.7v37.3c0,4.3-3.5,7.7-7.7,7.7H8.5
	c-4.3,0-7.7-3.5-7.7-7.7V8.4c0-4.3,3.5-7.7,7.7-7.7h56.3c4.3,0,7.7,3.5,7.7,7.7v2.2c0,4.3-3.5,7.7-7.7,7.7h-42
	C20.4,18.4,18.5,20.3,18.5,22.7z"/>
</svg>
